<?xml version="1.0" encoding="utf-8"?>
<!-- Generator: Adobe Illustrator 16.0.3, SVG Export Plug-In . SVG Version: 6.00 Build 0)  -->
<!DOCTYPE svg PUBLIC "-//W3C//DTD SVG 1.1//EN" "http://www.w3.org/Graphics/SVG/1.1/DTD/svg11.dtd">
<svg version="1.1" xmlns="http://www.w3.org/2000/svg" xmlns:xlink="http://www.w3.org/1999/xlink" x="0px" y="0px"
	 width="1112.6px" height="1000px" viewBox="0 0 1112.6 1000" style="enable-background:new 0 0 1112.6 1000;" xml:space="preserve"
	>
<style type="text/css">
<![CDATA[
	
		.st0{display:inline;fill-rule:evenodd;clip-rule:evenodd;fill:none;stroke:#EFE1E1;stroke-width:40;stroke-miterlimit:10;stroke-dasharray:100;}
	.st1{display:inline;}
	.st2{fill-rule:evenodd;clip-rule:evenodd;fill:#FFFFFF;}
	.st3{fill:none;stroke:#EFE1E1;stroke-width:40;stroke-miterlimit:10;}
	.st4{display:none;}
	.st5{fill:none;stroke:#EFE1E1;stroke-width:40;stroke-miterlimit:10;stroke-dasharray:50,50;}
]]>
</style>
<g id="Guide" class="st4">
	<rect x="0.1" class="st0" width="7578" height="1000"/>
	<g class="st1">
		<g>
			<g>
				<line class="st3" x1="7578.1" y1="-250" x2="7578.1" y2="-200"/>
				<line class="st5" x1="7578.1" y1="-150" x2="7578.1" y2="-75"/>
				<polyline class="st3" points="7578.1,-50 7578.1,0 7628.1,0 				"/>
				<line class="st5" x1="7678.1" y1="0" x2="7753.1" y2="0"/>
				<line class="st3" x1="7778.1" y1="0" x2="7828.1" y2="0"/>
			</g>
		</g>
		<g>
			<g>
				<line class="st3" x1="7828.1" y1="1000" x2="7778.1" y2="1000"/>
				<line class="st5" x1="7728.1" y1="1000" x2="7653.1" y2="1000"/>
				<polyline class="st3" points="7628.1,1000 7578.1,1000 7578.1,1050 				"/>
				<line class="st5" x1="7578.1" y1="1100" x2="7578.1" y2="1175"/>
				<line class="st3" x1="7578.1" y1="1200" x2="7578.1" y2="1250"/>
			</g>
		</g>
		<g>
			<g>
				<line class="st3" x1="0.1" y1="1250" x2="0.1" y2="1200"/>
				<line class="st5" x1="0.1" y1="1150" x2="0.1" y2="1075"/>
				<polyline class="st3" points="0.1,1050 0.1,1000 -49.9,1000 				"/>
				<line class="st5" x1="-99.9" y1="1000" x2="-174.9" y2="1000"/>
				<line class="st3" x1="-199.9" y1="1000" x2="-249.9" y2="1000"/>
			</g>
		</g>
		<g>
			<g>
				<line class="st3" x1="-249.9" y1="0" x2="-199.9" y2="0"/>
				<line class="st5" x1="-149.9" y1="0" x2="-74.9" y2="0"/>
				<polyline class="st3" points="-49.9,0 0.1,0 0.1,-50 				"/>
				<line class="st5" x1="0.1" y1="-100" x2="0.1" y2="-175"/>
				<line class="st3" x1="0.1" y1="-200" x2="0.1" y2="-250"/>
			</g>
		</g>
	</g>
</g>
<g id="Logotype">
	<g>
		<path class="st2" d="M-0.1,1000h188.7l458.2-839L552.5,0.2L-0.1,1000L-0.1,1000z M633.3,459.9l94.3-149.4l385,689.6H916.3
			L633.3,459.9z"/>
		<path class="st2" d="M2026.1,1000H2204V171.4h299.2V0.2c-273.6,0-504,0-776.3,0v171.2h299.2V1000z"/>
		<polygon class="st2" points="3416.3,2.1 3416.3,1000 4079.4,1000 4079.4,826.4 3594.2,826.4 3594.2,2.1 		"/>
		<path class="st2" d="M5759.4,1000h194.1L5530.3,0h-194.1l-423.2,1000h192.7l80.9-188.3h493.2L5759.4,1000L5759.4,1000z
			 M5608.5,636.2h-350.4l175.2-426L5608.5,636.2z"/>
		<path class="st2" d="M7548.6,187.4C7477.2,41.8,7324.9,0,7178,0c-173.9,1.4-365.2,80.9-365.2,274.9
			c0,211.6,177.9,262.8,370.6,285.7c125.3,13.5,218.3,49.8,218.3,138.8c0,102.4-105.1,141.5-217,141.5
			c-114.5,0-223.7-45.8-265.5-149.6L6771,768.2c70.1,172.5,218.3,231.8,411,231.8c210.2,0,396.2-90.3,396.2-300.5
			c0-225.1-183.3-276.3-380-300.5C7085,385.5,6988,362.5,6988,280.4c0-70.1,63.3-125.4,195.4-125.4c102.4,0,191.4,51.3,223.7,105.1
			L7548.6,187.4z"/>
	</g>
</g>
<g id="Ruler" class="st4">
	<g class="st1">
	</g>
</g>
</svg>
