<?xml version="1.0" encoding="utf-8"?>
<!-- Generator: Adobe Illustrator 16.0.3, SVG Export Plug-In . SVG Version: 6.00 Build 0)  -->
<!DOCTYPE svg PUBLIC "-//W3C//DTD SVG 1.1//EN" "http://www.w3.org/Graphics/SVG/1.1/DTD/svg11.dtd">
<svg version="1.1" xmlns="http://www.w3.org/2000/svg" xmlns:xlink="http://www.w3.org/1999/xlink" x="0px" y="0px"
	 width="6465.6px" height="1000px" viewBox="0 0 6465.6 1000" style="enable-background:new 0 0 6465.6 1000;" xml:space="preserve"
	>
<style type="text/css">
<![CDATA[
	
		.st0{display:inline;fill-rule:evenodd;clip-rule:evenodd;fill:none;stroke:#EFE1E1;stroke-width:40;stroke-miterlimit:10;stroke-dasharray:100;}
	.st1{display:inline;}
	.st2{fill-rule:evenodd;clip-rule:evenodd;fill:#FFFFFF;}
	.st3{fill:none;stroke:#EFE1E1;stroke-width:40;stroke-miterlimit:10;}
	.st4{display:none;}
	.st5{fill:none;stroke:#EFE1E1;stroke-width:40;stroke-miterlimit:10;stroke-dasharray:50,50;}
]]>
</style>
<g id="Guide" class="st4">
	<rect x="-1112.6" class="st0" width="7578" height="1000"/>
	<g class="st1">
		<g>
			<g>
				<line class="st3" x1="6465.4" y1="-250" x2="6465.4" y2="-200"/>
				<line class="st5" x1="6465.4" y1="-150" x2="6465.4" y2="-75"/>
				<polyline class="st3" points="6465.4,-50 6465.4,0 6515.4,0 				"/>
				<line class="st5" x1="6565.4" y1="0" x2="6640.4" y2="0"/>
				<line class="st3" x1="6665.4" y1="0" x2="6715.4" y2="0"/>
			</g>
		</g>
		<g>
			<g>
				<line class="st3" x1="6715.4" y1="1000" x2="6665.4" y2="1000"/>
				<line class="st5" x1="6615.4" y1="1000" x2="6540.4" y2="1000"/>
				<polyline class="st3" points="6515.4,1000 6465.4,1000 6465.4,1050 				"/>
				<line class="st5" x1="6465.4" y1="1100" x2="6465.4" y2="1175"/>
				<line class="st3" x1="6465.4" y1="1200" x2="6465.4" y2="1250"/>
			</g>
		</g>
		<g>
			<g>
				<line class="st3" x1="-1112.6" y1="1250" x2="-1112.6" y2="1200"/>
				<line class="st5" x1="-1112.6" y1="1150" x2="-1112.6" y2="1075"/>
				<polyline class="st3" points="-1112.6,1050 -1112.6,1000 -1162.6,1000 				"/>
				<line class="st5" x1="-1212.6" y1="1000" x2="-1287.6" y2="1000"/>
				<line class="st3" x1="-1312.6" y1="1000" x2="-1362.6" y2="1000"/>
			</g>
		</g>
		<g>
			<g>
				<line class="st3" x1="-1362.6" y1="0" x2="-1312.6" y2="0"/>
				<line class="st5" x1="-1262.6" y1="0" x2="-1187.6" y2="0"/>
				<polyline class="st3" points="-1162.6,0 -1112.6,0 -1112.6,-50 				"/>
				<line class="st5" x1="-1112.6" y1="-100" x2="-1112.6" y2="-175"/>
				<line class="st3" x1="-1112.6" y1="-200" x2="-1112.6" y2="-250"/>
			</g>
		</g>
	</g>
</g>
<g id="Logotype">
	<g>
		<path class="st2" d="M-1112.7,1000H-924l458.2-839L-560.2,0.2L-1112.7,1000L-1112.7,1000z M-479.3,459.9l94.3-149.4L0,1000h-196.3
			L-479.3,459.9z"/>
		<path class="st2" d="M913.5,1000h177.9V171.4h299.2V0.2c-273.6,0-504,0-776.3,0v171.2h299.2V1000z"/>
		<polygon class="st2" points="2303.7,2.1 2303.7,1000 2966.8,1000 2966.8,826.4 2481.6,826.4 2481.6,2.1 		"/>
		<path class="st2" d="M4646.8,1000h194.1L4417.7,0h-194.1l-423.2,1000h192.7l80.9-188.3h493.2L4646.8,1000L4646.8,1000z
			 M4495.8,636.2h-350.4l175.2-426L4495.8,636.2z"/>
		<path class="st2" d="M6436,187.4C6364.5,41.8,6212.3,0,6065.4,0c-173.9,1.4-365.2,80.9-365.2,274.9
			c0,211.6,177.9,262.8,370.6,285.7c125.3,13.5,218.3,49.8,218.3,138.8c0,102.4-105.1,141.5-217,141.5
			c-114.5,0-223.7-45.8-265.5-149.6l-148.2,76.8c70.1,172.5,218.3,231.8,411,231.8c210.2,0,396.2-90.3,396.2-300.5
			c0-225.1-183.3-276.3-380-300.5c-113.2-13.5-210.2-36.4-210.2-118.6c0-70.1,63.3-125.4,195.4-125.4
			c102.4,0,191.4,51.3,223.7,105.1L6436,187.4z"/>
	</g>
</g>
<g id="Ruler" class="st4">
	<g class="st1">
	</g>
</g>
</svg>
